<svg xmlns="http://www.w3.org/2000/svg" viewBox="0 0 44 44"><defs><style>.cls-1{fill:#91cda0;}.cls-2{fill:none;}</style></defs><title>ic_file_type_csv</title><g id="Livello_2" data-name="Livello 2"><g id="Livello_1-2" data-name="Livello 1"><path class="cls-1" d="M38.65,9.25,29.82.42a1.42,1.42,0,0,0-1-.42H6.8A2,2,0,0,0,4.93,2.22V42.49a1.74,1.74,0,0,0,1.39,1.45l.11,0a1.92,1.92,0,0,0,.36,0H37.2a1.92,1.92,0,0,0,.36,0l.11,0a1.74,1.74,0,0,0,1.39-1.45V10.61a1.75,1.75,0,0,0-.42-1.36Zm-2.29-.14H30V2.7ZM6.8,42.49a.54.54,0,0,1-.15,0,.35.35,0,0,1-.2-.31v-11h31.1v11a.35.35,0,0,1-.2.31.54.54,0,0,1-.15,0Zm-.35-12.9V2.22c0-.16,0-.7.35-.7h21.7a1.07,1.07,0,0,0,0,.3v8.81h8.81a1.09,1.09,0,0,0,.3,0v19Zm0,0"/><path class="cls-1" d="M13.68,34.86a1.65,1.65,0,0,1,.62-.49,1.9,1.9,0,0,1,.73-.14,1.69,1.69,0,0,1,.66.14,1.59,1.59,0,0,1,.58.43l.86-.77a2.81,2.81,0,0,0-1-.62A3.23,3.23,0,0,0,15,33.2a3.07,3.07,0,0,0-1.25.26,2.85,2.85,0,0,0-1,.74,3.43,3.43,0,0,0-.67,1.22,5.37,5.37,0,0,0-.24,1.7,5.44,5.44,0,0,0,.24,1.7A3.39,3.39,0,0,0,12.74,40a2.83,2.83,0,0,0,1,.74,3.34,3.34,0,0,0,2.42,0,2.75,2.75,0,0,0,1-.62l-.86-.76a1.69,1.69,0,0,1-.6.44A1.83,1.83,0,0,1,15,40a1.62,1.62,0,0,1-.71-.16,1.68,1.68,0,0,1-.6-.51,2.63,2.63,0,0,1-.41-.9,5.58,5.58,0,0,1,0-2.67,2.61,2.61,0,0,1,.43-.9Zm0,0"/><path class="cls-1" d="M22.4,37.22a4.27,4.27,0,0,0-.77-.44c-.27-.12-.53-.24-.77-.37a2.4,2.4,0,0,1-.59-.45A.94.94,0,0,1,20,35.3a.88.88,0,0,1,.08-.35,1.15,1.15,0,0,1,.23-.33,1.35,1.35,0,0,1,.33-.24,1,1,0,0,1,.39-.12,3.62,3.62,0,0,1,.61,0,1.74,1.74,0,0,1,.38.07,1.22,1.22,0,0,1,.22.1l.14.09.06-.1.13-.23.16-.3.15-.29a2,2,0,0,0-.79-.28,5.35,5.35,0,0,0-1-.09,2.74,2.74,0,0,0-.89.14,2.26,2.26,0,0,0-.74.42,2,2,0,0,0-.69,1.57,1.69,1.69,0,0,0,.24.93,2.38,2.38,0,0,0,.6.65,4.43,4.43,0,0,0,.78.48l.77.4a2.66,2.66,0,0,1,.6.45.86.86,0,0,1,.24.6,1.1,1.1,0,0,1-.34.87,1.44,1.44,0,0,1-1,.3,2.84,2.84,0,0,1-.44,0,4.34,4.34,0,0,1-.48-.11l-.46-.14a2.31,2.31,0,0,1-.37-.16l-.22.89a1.7,1.7,0,0,0,.42.26,2.63,2.63,0,0,0,.51.17,3.49,3.49,0,0,0,.54.09l.51,0a2.92,2.92,0,0,0,1-.17,2.4,2.4,0,0,0,.77-.47,2.11,2.11,0,0,0,.48-.69,2,2,0,0,0,.17-.8,1.88,1.88,0,0,0-.24-1,2.34,2.34,0,0,0-.6-.65Zm0,0"/><path class="cls-1" d="M27.4,39.92l-1.77-6.59H24.2L26.58,41H28.2l2.49-7.68H29.28Zm0,0"/><path class="cls-1" d="M18.58,9.86H9.48V26.55h25V12.9H18.58ZM11,14.41h6.07v1.52H11Zm0,3h6.07V19H11Zm0,3h6.07V22H11ZM17.07,25H11V23.52h6.07ZM33,25H18.58V23.52H33Zm0-3H18.58V20.49H33Zm0-3H18.58V17.45H33Zm0-4.55v1.52H18.58V14.41ZM11,12.9V11.38h6.07V12.9Zm0,0"/><rect class="cls-2" width="44" height="44"/></g></g></svg>