<svg xmlns="http://www.w3.org/2000/svg" viewBox="0 0 44 44"><defs><style>.cls-1{fill:#cc4b4c;}.cls-2{fill:none;}</style></defs><title>ic_file_type_pdf</title><g id="Livello_2" data-name="Livello 2"><g id="Livello_1-2" data-name="Livello 1"><path class="cls-1" d="M38.65,9.25,29.82.42a1.42,1.42,0,0,0-1-.42H6.8A2,2,0,0,0,4.93,2.22V42.49a1.74,1.74,0,0,0,1.39,1.45l.11,0a1.92,1.92,0,0,0,.36,0H37.2a1.92,1.92,0,0,0,.36,0l.11,0a1.74,1.74,0,0,0,1.39-1.45V10.61a1.75,1.75,0,0,0-.42-1.36Zm-2.29-.14H30V2.7ZM6.8,42.49a.54.54,0,0,1-.15,0,.35.35,0,0,1-.2-.31v-11h31.1v11a.35.35,0,0,1-.2.31.54.54,0,0,1-.15,0Zm-.35-12.9V2.22c0-.16,0-.7.35-.7h21.7a1.07,1.07,0,0,0,0,.3v8.81h8.81a1.09,1.09,0,0,0,.3,0v19Zm0,0"/><path class="cls-1" d="M16.72,33.95a2.53,2.53,0,0,0-.86-.47,3.08,3.08,0,0,0-1-.16H12.7V41h1.25V38.21h.92A3.24,3.24,0,0,0,16,38a2.49,2.49,0,0,0,.85-.5,2.18,2.18,0,0,0,.55-.79,2.66,2.66,0,0,0,.2-1.05,2.07,2.07,0,0,0-.24-1,2.42,2.42,0,0,0-.61-.75Zm-.47,2.52A1.28,1.28,0,0,1,16,37a1.16,1.16,0,0,1-.41.26,1.36,1.36,0,0,1-.45.08H13.95v-3h.93a1.66,1.66,0,0,1,.77.15,1.26,1.26,0,0,1,.45.37,1.2,1.2,0,0,1,.21.47,1.91,1.91,0,0,1,.05.43,2.38,2.38,0,0,1-.11.78Zm0,0"/><path class="cls-1" d="M24.24,34.44A3.54,3.54,0,0,0,23,33.63a4.35,4.35,0,0,0-1.69-.3H19V41h2.89l.45,0a3,3,0,0,0,.66-.16,3.55,3.55,0,0,0,.75-.39,2.59,2.59,0,0,0,.7-.71A4,4,0,0,0,25,38.54a5.53,5.53,0,0,0,.2-1.61A3.8,3.8,0,0,0,25,35.6a3.35,3.35,0,0,0-.72-1.16Zm-.91,4.8a2.06,2.06,0,0,1-1.83.81H20.27V34.27H21a3.82,3.82,0,0,1,1.45.23,2.27,2.27,0,0,1,.88.61,2,2,0,0,1,.44.84,3.87,3.87,0,0,1,.11.94,4.09,4.09,0,0,1-.56,2.35Zm0,0"/><path class="cls-1" d="M27,41h1.27V37.52h3.19v-.85H28.27V34.27h3.52v-.94H27Zm0,0"/><path class="cls-1" d="M29.15,17.42a14.71,14.71,0,0,0-2.55.27A24.25,24.25,0,0,1,22.74,12c1-4.27.51-4.87.29-5.16s-.58-.8-1-.8a3.86,3.86,0,0,0-.77.13,1.47,1.47,0,0,0-.86.92c-.54,1.26.2,3.39,1,5a51,51,0,0,1-2.87,8.15c-2.87,1.32-4.4,2.61-4.54,3.84a1.81,1.81,0,0,0,.84,1.7,1.21,1.21,0,0,0,.73.25c.66,0,1.33-.51,2.11-1.6a21.55,21.55,0,0,0,1.81-3.23,36.48,36.48,0,0,1,6.7-2.14,5,5,0,0,0,3.19,1.73,2,2,0,0,0,1.69-.9,1.53,1.53,0,0,0,.3-1.64c-.29-.57-1-.85-2.2-.85ZM15.58,24.76c-.36-.27-.34-.46-.33-.52,0-.42.71-1.17,2.33-2.08-1.23,2.27-1.89,2.57-2,2.6ZM21.8,7.37s.79.84.07,2.44a1.82,1.82,0,0,1-.07-2.44ZM20.23,19.53a54.27,54.27,0,0,0,2-5.74,26.16,26.16,0,0,0,2.9,4.2,38,38,0,0,0-4.93,1.53ZM30,19.16a1.15,1.15,0,0,1-.92.33c-.4,0-.56-.24-1.17-.72a10.57,10.57,0,0,1,1.37-.08c.67,0,.8.1.89.15a1.32,1.32,0,0,1-.17.31Zm0,0"/><rect class="cls-2" width="44" height="44"/></g></g></svg>