<svg xmlns="http://www.w3.org/2000/svg" viewBox="0 0 44 44"><defs><style>.cls-1{fill:#36a9e1;}.cls-2{fill:none;}</style></defs><title>ic_file_type_generic</title><g id="Livello_2" data-name="Livello 2"><g id="Livello_1-2" data-name="Livello 1"><path class="cls-1" d="M38.65,9.25,29.82.42a1.41,1.41,0,0,0-1-.42H6.8A1.87,1.87,0,0,0,4.93,1.87V42.13A1.87,1.87,0,0,0,6.8,44H37.2a1.87,1.87,0,0,0,1.87-1.87V10.25a1.41,1.41,0,0,0-.42-1ZM30,2.7l6.4,6.4H30Zm7.59,39.43a.35.35,0,0,1-.35.35H6.8a.35.35,0,0,1-.35-.35V1.87a.35.35,0,0,1,.35-.35h21.7a1.07,1.07,0,0,0,0,.3v8.81h8.81a1.09,1.09,0,0,0,.3,0Zm0,0"/><path class="cls-1" d="M24.66,19"/><path class="cls-1" d="M10.24,10.62h4.55a.76.76,0,1,0,0-1.51H10.24a.76.76,0,1,0,0,1.51Zm0,0"/><path class="cls-1" d="M10.24,14.41h6.83a.76.76,0,1,0,0-1.51H10.24a.76.76,0,1,0,0,1.51Zm0,0"/><path class="cls-1" d="M20.1,14.41a.76.76,0,1,0-.54-1.3.76.76,0,0,0,.54,1.3Zm0,0"/><path class="cls-1" d="M23.14,14.41h6.07a.76.76,0,0,0,0-1.51H23.14a.76.76,0,1,0,0,1.51Zm0,0"/><path class="cls-1" d="M9.7,24.5a.76.76,0,0,0,1.08,1.08A.76.76,0,1,0,9.7,24.5Zm0,0"/><path class="cls-1" d="M19.34,24.28H13.28a.76.76,0,1,0,0,1.51h6.07a.76.76,0,1,0,0-1.51Zm0,0"/><path class="cls-1" d="M33.76,12.9H32.24a.76.76,0,1,0,0,1.51h1.51a.76.76,0,1,0,0-1.51Zm0,0"/><path class="cls-1" d="M10.24,18.21H26.93a.76.76,0,1,0,0-1.51H10.24a.76.76,0,1,0,0,1.51Zm0,0"/><path class="cls-1" d="M33.76,16.69H29.21a.76.76,0,1,0,0,1.51h4.55a.76.76,0,1,0,0-1.51Zm0,0"/><path class="cls-1" d="M10.24,22h3a.76.76,0,1,0,0-1.51h-3a.76.76,0,1,0,0,1.51Zm0,0"/><path class="cls-1" d="M23.9,20.49H16.31a.76.76,0,1,0,0,1.51H23.9a.76.76,0,1,0,0-1.51Zm0,0"/><path class="cls-1" d="M33.76,20.49H26.93a.76.76,0,1,0,0,1.51h6.83a.76.76,0,1,0,0-1.51Zm0,0"/><path class="cls-1" d="M10.24,29.41h6.83a.76.76,0,1,0,0-1.51H10.24a.76.76,0,1,0,0,1.51Zm0,0"/><path class="cls-1" d="M20.1,29.41a.76.76,0,1,0-.54-1.3.76.76,0,0,0,.54,1.3Zm0,0"/><path class="cls-1" d="M23.14,29.41h6.07a.76.76,0,0,0,0-1.51H23.14a.76.76,0,1,0,0,1.51Zm0,0"/><path class="cls-1" d="M33.76,27.9H32.24a.76.76,0,1,0,0,1.51h1.51a.76.76,0,1,0,0-1.51Zm0,0"/><path class="cls-1" d="M10.24,33.21H26.93a.76.76,0,1,0,0-1.51H10.24a.76.76,0,1,0,0,1.51Zm0,0"/><path class="cls-1" d="M33.76,31.69H29.21a.76.76,0,1,0,0,1.51h4.55a.76.76,0,1,0,0-1.51Zm0,0"/><path class="cls-1" d="M10.24,37h3a.76.76,0,1,0,0-1.51h-3a.76.76,0,1,0,0,1.51Zm0,0"/><path class="cls-1" d="M23.9,35.49H16.31a.76.76,0,1,0,0,1.51H23.9a.76.76,0,1,0,0-1.51Zm0,0"/><path class="cls-1" d="M33.76,35.49H26.93a.76.76,0,1,0,0,1.51h6.83a.76.76,0,1,0,0-1.51Zm0,0"/><rect class="cls-2" width="44" height="44"/></g></g></svg>